<?xml version="1.0" encoding="utf-8"?>
<!-- Generator: Adobe Illustrator 16.0.0, SVG Export Plug-In . SVG Version: 6.00 Build 0)  -->
<!DOCTYPE svg PUBLIC "-//W3C//DTD SVG 1.1//EN" "http://www.w3.org/Graphics/SVG/1.1/DTD/svg11.dtd">
<svg version="1.1"
	 id="svg3600" sodipodi:docname="113USSenateStructure-2.svg" inkscape:version="0.48.4 r9939" xmlns:dc="http://purl.org/dc/elements/1.1/" xmlns:cc="http://creativecommons.org/ns#" xmlns:rdf="http://www.w3.org/1999/02/22-rdf-syntax-ns#" xmlns:svg="http://www.w3.org/2000/svg" xmlns:sodipodi="http://sodipodi.sourceforge.net/DTD/sodipodi-0.dtd" xmlns:inkscape="http://www.inkscape.org/namespaces/inkscape"
	 xmlns="http://www.w3.org/2000/svg" xmlns:xlink="http://www.w3.org/1999/xlink" x="0px" y="0px" width="1280px"
	 height="649.615px" viewBox="0 0 1280 649.615" enable-background="new 0 0 1280 649.615" xml:space="preserve">
<sodipodi:namedview  id="base" inkscape:pageopacity="0.0" inkscape:cy="337.22624" inkscape:cx="711.23625" inkscape:zoom="0.70710678" fit-margin-left="20" borderopacity="1.0" fit-margin-top="20" bordercolor="#666666" showguides="true" pagecolor="#ffffff" showgrid="false" inkscape:window-maximized="1" inkscape:guide-bbox="true" inkscape:window-y="-8" inkscape:window-x="-8" inkscape:window-height="1028" inkscape:window-width="1920" fit-margin-bottom="20" fit-margin-right="20" inkscape:current-layer="layer1" inkscape:document-units="px" inkscape:pageshadow="2">
	</sodipodi:namedview>
<g id="layer1" transform="translate(123.03025,-348.33539)" inkscape:groupmode="layer" inkscape:label="Layer 1">
	<g id="L1" transform="matrix(2.1573318,0,0,2.1573318,480.57223,952.06213)">
		<path id="path3483" inkscape:connector-curvature="0" fill="#000090" d="M-12,0c0,6.629,5.372,12,12,12c6.627,0,12-5.371,12-12
			c0-6.626-5.373-12-12-12C-6.628-12-12-6.626-12,0z"/>
	</g>
	<g id="L2" transform="matrix(2.1573318,0,0,2.1573318,479.36823,889.27622)">
		<path id="path3479" inkscape:connector-curvature="0" fill="#000090" d="M-12,0c0,6.629,5.372,12,12,12c6.627,0,12-5.371,12-12
			c0-6.626-5.373-12-12-12C-6.628-12-12-6.626-12,0z"/>
	</g>
	<g id="L3" transform="matrix(2.1573318,0,0,2.1573318,479.36823,825.46428)">
		<path id="path3475" inkscape:connector-curvature="0" fill="#000090" d="M-12,0c0,6.629,5.372,12,12,12c6.627,0,12-5.371,12-12
			c0-6.626-5.373-12-12-12C-6.628-12-12-6.626-12,0z"/>
	</g>
	<g id="L4" transform="matrix(2.1573318,0,0,2.1573318,480.67341,762.78798)">
		<path id="path3471" inkscape:connector-curvature="0" fill="#000090" d="M-12,0c0,6.629,5.372,12,12,12c6.627,0,12-5.371,12-12
			c0-6.626-5.373-12-12-12C-6.628-12-12-6.626-12,0z"/>
	</g>
	<g id="L5" transform="matrix(2.1573318,0,0,2.1573318,480.44279,700.8732)">
		<path id="path3467" inkscape:connector-curvature="0" fill="#000090" d="M-12,0c0,6.629,5.372,12,12,12c6.627,0,12-5.371,12-12
			c0-6.626-5.373-12-12-12C-6.628-12-12-6.626-12,0z"/>
	</g>
	<g id="L6" transform="matrix(2.1573318,0,0,2.1573318,400.38982,941.74318)">
		<path id="path3463" inkscape:connector-curvature="0" fill="#000090" d="M-12,0c0,6.629,5.372,12,12,12c6.627,0,12-5.371,12-12
			c0-6.626-5.373-12-12-12C-6.628-12-12-6.626-12,0z"/>
	</g>
	<g id="L7" transform="matrix(2.1573318,0,0,2.1573318,402.04363,878.05767)">
		<path id="path3459" inkscape:connector-curvature="0" fill="#000090" d="M-12,0c0,6.629,5.372,12,12,12c6.627,0,12-5.371,12-12
			c0-6.626-5.373-12-12-12C-6.628-12-12-6.626-12,0z"/>
	</g>
	<g id="L8" transform="matrix(2.1573318,0,0,2.1573318,404.7403,813.43372)">
		<path id="path3455" inkscape:connector-curvature="0" fill="#000090" d="M-12,0c0,6.629,5.372,12,12,12c6.627,0,12-5.371,12-12
			c0-6.626-5.373-12-12-12C-6.628-12-12-6.626-12,0z"/>
	</g>
	<g id="L9" transform="matrix(2.1573318,0,0,2.1573318,409.39085,749.99156)">
		<path id="path3451" inkscape:connector-curvature="0" fill="#000090" d="M-12,0c0,6.629,5.372,12,12,12c6.627,0,12-5.371,12-12
			c0-6.626-5.373-12-12-12C-6.628-12-12-6.626-12,0z"/>
	</g>
	<g id="L10" transform="matrix(2.1573318,0,0,2.1573318,413.71716,686.8348)">
		<path id="path3447" inkscape:connector-curvature="0" fill="#000090" d="M-12,0c0,6.629,5.372,12,12,12c6.627,0,12-5.371,12-12
			c0-6.626-5.373-12-12-12C-6.628-12-12-6.626-12,0z"/>
	</g>
	<g id="L11" transform="matrix(2.1573318,0,0,2.1573318,323.92341,921.16439)">
		<path id="path3443" inkscape:connector-curvature="0" fill="#000090" d="M-12,0c0,6.629,5.372,12,12,12c6.627,0,12-5.371,12-12
			c0-6.626-5.373-12-12-12C-6.628-12-12-6.626-12,0z"/>
	</g>
	<g id="L12" transform="matrix(2.1573318,0,0,2.1573318,328.7554,856.10724)">
		<path id="path3439" inkscape:connector-curvature="0" fill="#000090" d="M-12,0c0,6.629,5.372,12,12,12c6.627,0,12-5.371,12-12
			c0-6.626-5.373-12-12-12C-6.628-12-12-6.626-12,0z"/>
	</g>
	<g id="L13" transform="matrix(2.1573318,0,0,2.1573318,334.55431,790.16322)">
		<path id="path3435" inkscape:connector-curvature="0" fill="#000090" d="M-12,0c0,6.629,5.372,12,12,12c6.627,0,12-5.371,12-12
			c0-6.626-5.373-12-12-12C-6.628-12-12-6.626-12,0z"/>
	</g>
	<g id="L14" transform="matrix(2.1573318,0,0,2.1573318,343.01298,725.38956)">
		<path id="path3431" inkscape:connector-curvature="0" fill="#000090" d="M-12,0c0,6.629,5.372,12,12,12c6.627,0,12-5.371,12-12
			c0-6.626-5.373-12-12-12C-6.628-12-12-6.626-12,0z"/>
	</g>
	<g id="L15" transform="matrix(2.1573318,0,0,2.1573318,352.43535,660.6202)">
		<path id="path3427" inkscape:connector-curvature="0" fill="#000090" d="M-12,0c0,6.629,5.372,12,12,12c6.627,0,12-5.371,12-12
			c0-6.626-5.373-12-12-12C-6.628-12-12-6.626-12,0z"/>
	</g>
	<g id="L16" transform="matrix(2.1573318,0,0,2.1573318,251.89938,891.0586)">
		<path id="path3423" inkscape:connector-curvature="0" fill="#000090" d="M-12,0c0,6.629,5.372,12,12,12c6.627,0,12-5.371,12-12
			c0-6.626-5.373-12-12-12C-6.628-12-12-6.626-12,0z"/>
	</g>
	<g id="L17" transform="matrix(2.1573318,0,0,2.1573318,185.04517,852.14875)">
		<path id="path3419" inkscape:connector-curvature="0" fill="#000090" d="M-12,0c0,6.629,5.372,12,12,12c6.627,0,12-5.371,12-12
			c0-6.626-5.373-12-12-12C-6.628-12-12-6.626-12,0z"/>
	</g>
	<g id="L18" transform="matrix(2.1573318,0,0,2.1573318,260.33799,824.2646)">
		<path id="path3415" inkscape:connector-curvature="0" fill="#000090" d="M-12,0c0,6.629,5.372,12,12,12c6.627,0,12-5.371,12-12
			c0-6.626-5.373-12-12-12C-6.628-12-12-6.626-12,0z"/>
	</g>
	<g id="L19" transform="matrix(2.1573318,0,0,2.1573318,269.78171,756.62664)">
		<path id="path3411" inkscape:connector-curvature="0" fill="#000090" d="M-12,0c0,6.629,5.372,12,12,12c6.627,0,12-5.371,12-12
			c0-6.626-5.373-12-12-12C-6.628-12-12-6.626-12,0z"/>
	</g>
	<g id="L20" transform="matrix(2.1573318,0,0,2.1573318,282.68882,690.13185)">
		<path id="path3407" inkscape:connector-curvature="0" fill="#000090" d="M-12,0c0,6.629,5.372,12,12,12c6.627,0,12-5.371,12-12
			c0-6.626-5.373-12-12-12C-6.628-12-12-6.626-12,0z"/>
	</g>
	<g id="L21" transform="matrix(2.1573318,0,0,2.1573318,297.94805,623.58097)">
		<path id="path3403" inkscape:connector-curvature="0" fill="#000090" d="M-12,0c0,6.629,5.372,12,12,12c6.627,0,12-5.371,12-12
			c0-6.626-5.373-12-12-12C-6.628-12-12-6.626-12,0z"/>
	</g>
	<g id="L22" transform="matrix(2.1573318,0,0,2.1573318,124.08588,805.16142)">
		<path id="path3399" inkscape:connector-curvature="0" fill="#000090" d="M-12,0c0,6.629,5.372,12,12,12c6.627,0,12-5.371,12-12
			c0-6.626-5.373-12-12-12C-6.628-12-12-6.626-12,0z"/>
	</g>
	<g id="L23" transform="matrix(2.1573318,0,0,2.1573318,197.62155,783.36158)">
		<path id="path3395" inkscape:connector-curvature="0" fill="#000090" d="M-12,0c0,6.629,5.372,12,12,12c6.627,0,12-5.371,12-12
			c0-6.626-5.373-12-12-12C-6.628-12-12-6.626-12,0z"/>
	</g>
	<g id="L24" transform="matrix(2.1573318,0,0,2.1573318,69.751319,750.82471)">
		<path id="path3391" inkscape:connector-curvature="0" fill="#000090" d="M-12,0c0,6.629,5.372,12,12,12c6.627,0,12-5.371,12-12
			c0-6.626-5.373-12-12-12C-6.628-12-12-6.626-12,0z"/>
	</g>
	<g id="L25" transform="matrix(2.1573318,0,0,2.1573318,141.44141,734.23699)">
		<path id="path3387" inkscape:connector-curvature="0" fill="#000090" d="M-12,0c0,6.629,5.372,12,12,12c6.627,0,12-5.371,12-12
			c0-6.626-5.373-12-12-12C-6.628-12-12-6.626-12,0z"/>
	</g>
	<g id="L26" transform="matrix(2.1573318,0,0,2.1573318,211.39785,713.79821)">
		<path id="path3383" inkscape:connector-curvature="0" fill="#000090" d="M-12,0c0,6.629,5.372,12,12,12c6.627,0,12-5.371,12-12
			c0-6.626-5.373-12-12-12C-6.628-12-12-6.626-12,0z"/>
	</g>
	<g id="L27" transform="matrix(2.1573318,0,0,2.1573318,229.56861,645.36938)">
		<path id="path3379" inkscape:connector-curvature="0" fill="#000090" d="M-12,0c0,6.629,5.372,12,12,12c6.627,0,12-5.371,12-12
			c0-6.626-5.373-12-12-12C-6.628-12-12-6.626-12,0z"/>
	</g>
	<g id="L28" transform="matrix(2.1573318,0,0,2.1573318,160.37501,662.65112)">
		<path id="path3375" inkscape:connector-curvature="0" fill="#000090" d="M-12,0c0,6.629,5.372,12,12,12c6.627,0,12-5.371,12-12
			c0-6.626-5.373-12-12-12C-6.628-12-12-6.626-12,0z"/>
	</g>
	<g id="L29" transform="matrix(2.1573318,0,0,2.1573318,92.629605,677.72719)">
		<path id="path3371" inkscape:connector-curvature="0" fill="#000090" d="M-12,0c0,6.629,5.372,12,12,12c6.627,0,12-5.371,12-12
			c0-6.626-5.373-12-12-12C-6.628-12-12-6.626-12,0z"/>
	</g>
	<g id="L30" transform="matrix(2.1573318,0,0,2.1573318,22.765064,689.86628)">
		<path id="path3367" inkscape:connector-curvature="0" fill="#000090" d="M-12,0c0,6.629,5.372,12,12,12c6.627,0,12-5.371,12-12
			c0-6.626-5.373-12-12-12C-6.628-12-12-6.626-12,0z"/>
	</g>
	<g id="L31" transform="matrix(2.1573318,0,0,2.1573318,251.60749,577.07105)">
		<path id="path3363" inkscape:connector-curvature="0" fill="#000090" d="M-12,0c0,6.629,5.372,12,12,12c6.627,0,12-5.371,12-12
			c0-6.626-5.373-12-12-12C-6.628-12-12-6.626-12,0z"/>
	</g>
	<g id="L32" transform="matrix(2.1573318,0,0,2.1573318,184.80398,592.2524)">
		<path id="path3359" inkscape:connector-curvature="0" fill="#000090" d="M-12,0c0,6.629,5.372,12,12,12c6.627,0,12-5.371,12-12
			c0-6.626-5.373-12-12-12C-6.628-12-12-6.626-12,0z"/>
	</g>
	<g id="L33" transform="matrix(2.1573318,0,0,2.1573318,117.68658,604.15765)">
		<path id="path3355" inkscape:connector-curvature="0" fill="#000090" d="M-12,0c0,6.629,5.372,12,12,12c6.627,0,12-5.371,12-12
			c0-6.626-5.373-12-12-12C-6.628-12-12-6.626-12,0z"/>
	</g>
	<g id="L34" transform="matrix(2.1573318,0,0,2.1573318,52.01848,614.6673)">
		<path id="path3351" inkscape:connector-curvature="0" fill="#000090" d="M-12,0c0,6.629,5.372,12,12,12c6.627,0,12-5.371,12-12
			c0-6.626-5.373-12-12-12C-6.628-12-12-6.626-12,0z"/>
	</g>
	<g id="L35" transform="matrix(2.1573318,0,0,2.1573318,-16.143931,623.01122)">
		<path id="path3347" inkscape:connector-curvature="0" fill="#000090" d="M-12,0c0,6.629,5.372,12,12,12c6.627,0,12-5.371,12-12
			c0-6.626-5.373-12-12-12C-6.628-12-12-6.626-12,0z"/>
	</g>
	<g id="L36" transform="matrix(2.1573318,0,0,2.1573318,214.76544,522.43921)">
		<path id="path3343" inkscape:connector-curvature="0" fill="#000090" d="M-12,0c0,6.629,5.372,12,12,12c6.627,0,12-5.371,12-12
			c0-6.626-5.373-12-12-12C-6.628-12-12-6.626-12,0z"/>
	</g>
	<g id="L37" transform="matrix(2.1573318,0,0,2.1573318,149.54305,531.93126)">
		<path id="path3339" inkscape:connector-curvature="0" fill="#000090" d="M-12,0c0,6.629,5.372,12,12,12c6.627,0,12-5.371,12-12
			c0-6.626-5.373-12-12-12C-6.628-12-12-6.626-12,0z"/>
	</g>
	<g id="L38" transform="matrix(2.1573318,0,0,2.1573318,84.305763,539.29229)">
		<path id="path3335" inkscape:connector-curvature="0" fill="#000090" d="M-12,0c0,6.629,5.372,12,12,12c6.627,0,12-5.371,12-12
			c0-6.626-5.373-12-12-12C-6.628-12-12-6.626-12,0z"/>
	</g>
	<g id="L39" transform="matrix(2.1573318,0,0,2.1573318,20.441189,545.89287)">
		<path id="path3331" inkscape:connector-curvature="0" fill="#000090" d="M-12,0c0,6.629,5.372,12,12,12c6.627,0,12-5.371,12-12
			c0-6.626-5.373-12-12-12C-6.628-12-12-6.626-12,0z"/>
	</g>
	<g id="L40" transform="matrix(2.1573318,0,0,2.1573318,-46.248631,550.98611)">
		<path id="path3327" inkscape:connector-curvature="0" fill="#000090" d="M-12,0c0,6.629,5.372,12,12,12c6.627,0,12-5.371,12-12
			c0-6.626-5.373-12-12-12C-6.628-12-12-6.626-12,0z"/>
	</g>
	<g id="L41" transform="matrix(2.1573318,0,0,2.1573318,188.77413,461.03962)">
		<path id="path3323" inkscape:connector-curvature="0" fill="#000090" d="M-12,0c0,6.629,5.372,12,12,12c6.627,0,12-5.371,12-12
			c0-6.626-5.373-12-12-12C-6.628-12-12-6.626-12,0z"/>
	</g>
	<g id="L42" transform="matrix(2.1573318,0,0,2.1573318,124.93694,465.55448)">
		<path id="path3319" inkscape:connector-curvature="0" fill="#000090" d="M-12,0c0,6.629,5.372,12,12,12c6.627,0,12-5.371,12-12
			c0-6.626-5.373-12-12-12C-6.628-12-12-6.626-12,0z"/>
	</g>
	<g id="L44" transform="matrix(2.1573318,0,0,2.1573318,-1.2699848,472.24242)">
		<path id="path3315" inkscape:connector-curvature="0" fill="#000090" d="M-12,0c0,6.629,5.372,12,12,12c6.627,0,12-5.371,12-12
			c0-6.626-5.373-12-12-12C-6.628-12-12-6.626-12,0z"/>
	</g>
	<g id="L43" transform="matrix(2.1573318,0,0,2.1573318,61.206124,469.02734)">
		<path id="path3311" inkscape:connector-curvature="0" fill="#000090" d="M-12,0c0,6.629,5.372,12,12,12c6.627,0,12-5.371,12-12
			c0-6.626-5.373-12-12-12C-6.628-12-12-6.626-12,0z"/>
	</g>
	<g id="L45" transform="matrix(2.1573318,0,0,2.1573318,-66.824397,474.5197)">
		<path id="path3307" inkscape:connector-curvature="0" fill="#000090" d="M-12,0c0,6.629,5.372,12,12,12c6.627,0,12-5.371,12-12
			c0-6.626-5.373-12-12-12C-6.628-12-12-6.626-12,0z"/>
	</g>
	<g id="L46" transform="matrix(2.1573318,0,0,2.1573318,174.98339,394.22337)">
		<path id="path3303" inkscape:connector-curvature="0" fill="#000090" d="M-12,0c0,6.629,5.372,12,12,12c6.627,0,12-5.371,12-12
			c0-6.626-5.373-12-12-12C-6.628-12-12-6.626-12,0z"/>
	</g>
	<g id="L47" transform="matrix(2.1573318,0,0,2.1573318,112.13621,394.27407)">
		<path id="path3299" inkscape:connector-curvature="0" fill="#000090" d="M-12,0c0,6.629,5.372,12,12,12c6.627,0,12-5.371,12-12
			c0-6.626-5.373-12-12-12C-6.628-12-12-6.626-12,0z"/>
	</g>
	<g id="L48" transform="matrix(2.1573318,0,0,2.1573318,49.360863,394.33729)">
		<path id="path3295" inkscape:connector-curvature="0" fill="#000090" d="M-12,0c0,6.629,5.372,12,12,12c6.627,0,12-5.371,12-12
			c0-6.626-5.373-12-12-12C-6.628-12-12-6.626-12,0z"/>
	</g>
	<g id="L49" transform="matrix(2.1573318,0,0,2.1573318,-12.281005,394.55)">
		<path id="path3291" inkscape:connector-curvature="0" fill="#000090" d="M-12,0c0,6.629,5.372,12,12,12c6.627,0,12-5.371,12-12
			c0-6.626-5.373-12-12-12C-6.628-12-12-6.626-12,0z"/>
	</g>
	<g id="L50" transform="matrix(2.1573318,0,0,2.1573318,-77.142265,394.33729)">
		<path id="path3287" inkscape:connector-curvature="0" fill="#000090" d="M-12,0c0,6.629,5.372,12,12,12c6.627,0,12-5.371,12-12
			c0-6.626-5.373-12-12-12C-6.628-12-12-6.626-12,0z"/>
	</g>
	<g id="R1" transform="matrix(-2.1573318,0,0,2.1573318,553.36916,952.06213)">
		<path id="path3283" inkscape:connector-curvature="0" fill="#000090" d="M-12,0c0,6.629,5.372,12,12,12c6.627,0,12-5.371,12-12
			c0-6.626-5.373-12-12-12C-6.628-12-12-6.626-12,0z"/>
	</g>
	<g id="R2" transform="matrix(-2.1573318,0,0,2.1573318,554.57209,889.27622)">
		<path id="path3279" inkscape:connector-curvature="0" fill="#000090" d="M-12,0c0,6.629,5.372,12,12,12c6.627,0,12-5.371,12-12
			c0-6.626-5.373-12-12-12C-6.628-12-12-6.626-12,0z"/>
	</g>
	<g id="R3" transform="matrix(-2.1573318,0,0,2.1573318,554.57209,825.46428)">
		<path id="path3275" inkscape:connector-curvature="0" fill="#000090" d="M-12,0c0,6.629,5.372,12,12,12c6.627,0,12-5.371,12-12
			c0-6.626-5.373-12-12-12C-6.628-12-12-6.626-12,0z"/>
	</g>
	<g id="R4" transform="matrix(-2.1573318,0,0,2.1573318,553.26798,762.78798)">
		<path id="path3271" inkscape:connector-curvature="0" fill="#9090FF" d="M-12,0c0,6.629,5.372,12,12,12c6.627,0,12-5.371,12-12
			c0-6.626-5.373-12-12-12C-6.628-12-12-6.626-12,0z"/>
	</g>
	<g id="R5" transform="matrix(-2.1573318,0,0,2.1573318,553.49774,700.8732)">
		<path id="path3267" inkscape:connector-curvature="0" fill="#9090FF" d="M-12,0c0,6.629,5.372,12,12,12c6.627,0,12-5.371,12-12
			c0-6.626-5.373-12-12-12C-6.628-12-12-6.626-12,0z"/>
	</g>
	<g id="R6" transform="matrix(-2.1573318,0,0,2.1573318,633.55071,941.74318)">
		<path id="path3263" inkscape:connector-curvature="0" fill="#900000" d="M-12,0c0,6.629,5.372,12,12,12c6.627,0,12-5.371,12-12
			c0-6.626-5.373-12-12-12C-6.628-12-12-6.626-12,0z"/>
	</g>
	<g id="R7" transform="matrix(-2.1573318,0,0,2.1573318,631.89691,878.05767)">
		<path id="path3259" inkscape:connector-curvature="0" fill="#900000" d="M-12,0c0,6.629,5.372,12,12,12c6.627,0,12-5.371,12-12
			c0-6.626-5.373-12-12-12C-6.628-12-12-6.626-12,0z"/>
	</g>
	<g id="R8" transform="matrix(-2.1573318,0,0,2.1573318,629.20023,813.43372)">
		<path id="path3255" inkscape:connector-curvature="0" fill="#900000" d="M-12,0c0,6.629,5.372,12,12,12c6.627,0,12-5.371,12-12
			c0-6.626-5.373-12-12-12C-6.628-12-12-6.626-12,0z"/>
	</g>
	<g id="R9" transform="matrix(-2.1573318,0,0,2.1573318,624.55054,749.99156)">
		<path id="path3251" inkscape:connector-curvature="0" fill="#900000" d="M-12,0c0,6.629,5.372,12,12,12c6.627,0,12-5.371,12-12
			c0-6.626-5.373-12-12-12C-6.628-12-12-6.626-12,0z"/>
	</g>
	<g id="R10" transform="matrix(-2.1573318,0,0,2.1573318,620.22336,686.8348)">
		<path id="path3247" inkscape:connector-curvature="0" fill="#900000" d="M-12,0c0,6.629,5.372,12,12,12c6.627,0,12-5.371,12-12
			c0-6.626-5.373-12-12-12C-6.628-12-12-6.626-12,0z"/>
	</g>
	<g id="R11" transform="matrix(-2.1573318,0,0,2.1573318,710.01797,921.16439)">
		<path id="path3243" inkscape:connector-curvature="0" fill="#900000" d="M-12,0c0,6.629,5.372,12,12,12c6.627,0,12-5.371,12-12
			c0-6.626-5.373-12-12-12C-6.628-12-12-6.626-12,0z"/>
	</g>
	<g id="R12" transform="matrix(-2.1573318,0,0,2.1573318,705.18513,856.10724)">
		<path id="path3239" inkscape:connector-curvature="0" fill="#900000" d="M-12,0c0,6.629,5.372,12,12,12c6.627,0,12-5.371,12-12
			c0-6.626-5.373-12-12-12C-6.628-12-12-6.626-12,0z"/>
	</g>
	<g id="R13" transform="matrix(-2.1573318,0,0,2.1573318,699.38729,790.16322)">
		<path id="path3235" inkscape:connector-curvature="0" fill="#900000" d="M-12,0c0,6.629,5.372,12,12,12c6.627,0,12-5.371,12-12
			c0-6.626-5.373-12-12-12C-6.628-12-12-6.626-12,0z"/>
	</g>
	<g id="R14" transform="matrix(-2.1573318,0,0,2.1573318,690.92862,725.38956)">
		<path id="path3231" inkscape:connector-curvature="0" fill="#900000" d="M-12,0c0,6.629,5.372,12,12,12c6.627,0,12-5.371,12-12
			c0-6.626-5.373-12-12-12C-6.628-12-12-6.626-12,0z"/>
	</g>
	<g id="R15" transform="matrix(-2.1573318,0,0,2.1573318,681.50496,660.6202)">
		<path id="path3227" inkscape:connector-curvature="0" fill="#900000" d="M-12,0c0,6.629,5.372,12,12,12c6.627,0,12-5.371,12-12
			c0-6.626-5.373-12-12-12C-6.628-12-12-6.626-12,0z"/>
	</g>
	<g id="R16" transform="matrix(-2.1573318,0,0,2.1573318,782.04223,891.0586)">
		<path id="path3223" inkscape:connector-curvature="0" fill="#900000" d="M-12,0c0,6.629,5.372,12,12,12c6.627,0,12-5.371,12-12
			c0-6.626-5.373-12-12-12C-6.628-12-12-6.626-12,0z"/>
	</g>
	<g id="R17" transform="matrix(-2.1573318,0,0,2.1573318,848.89617,852.14875)">
		<path id="path3219" inkscape:connector-curvature="0" fill="#900000" d="M-12,0c0,6.629,5.372,12,12,12c6.627,0,12-5.371,12-12
			c0-6.626-5.373-12-12-12C-6.628-12-12-6.626-12,0z"/>
	</g>
	<g id="R18" transform="matrix(-2.1573318,0,0,2.1573318,773.60253,824.2646)">
		<path id="path3215" inkscape:connector-curvature="0" fill="#900000" d="M-12,0c0,6.629,5.372,12,12,12c6.627,0,12-5.371,12-12
			c0-6.626-5.373-12-12-12C-6.628-12-12-6.626-12,0z"/>
	</g>
	<g id="R19" transform="matrix(-2.1573318,0,0,2.1573318,764.15773,756.62664)">
		<path id="path3211" inkscape:connector-curvature="0" fill="#900000" d="M-12,0c0,6.629,5.372,12,12,12c6.627,0,12-5.371,12-12
			c0-6.626-5.373-12-12-12C-6.628-12-12-6.626-12,0z"/>
	</g>
	<g id="R20" transform="matrix(-2.1573318,0,0,2.1573318,751.25171,690.13185)">
		<path id="path3207" inkscape:connector-curvature="0" fill="#900000" d="M-12,0c0,6.629,5.372,12,12,12c6.627,0,12-5.371,12-12
			c0-6.626-5.373-12-12-12C-6.628-12-12-6.626-12,0z"/>
	</g>
	<g id="R21" transform="matrix(-2.1573318,0,0,2.1573318,735.99247,623.58097)">
		<path id="path3203" inkscape:connector-curvature="0" fill="#900000" d="M-12,0c0,6.629,5.372,12,12,12c6.627,0,12-5.371,12-12
			c0-6.626-5.373-12-12-12C-6.628-12-12-6.626-12,0z"/>
	</g>
	<g id="R22" transform="matrix(-2.1573318,0,0,2.1573318,909.85364,805.16142)">
		<path id="path3199" inkscape:connector-curvature="0" fill="#900000" d="M-12,0c0,6.629,5.372,12,12,12c6.627,0,12-5.371,12-12
			c0-6.626-5.373-12-12-12C-6.628-12-12-6.626-12,0z"/>
	</g>
	<g id="R23" transform="matrix(-2.1573318,0,0,2.1573318,836.31876,783.36158)">
		<path id="path3195" inkscape:connector-curvature="0" fill="#900000" d="M-12,0c0,6.629,5.372,12,12,12c6.627,0,12-5.371,12-12
			c0-6.626-5.373-12-12-12C-6.628-12-12-6.626-12,0z"/>
	</g>
	<g id="R24" transform="matrix(-2.1573318,0,0,2.1573318,964.18923,750.82471)">
		<path id="path3191" inkscape:connector-curvature="0" fill="#900000" d="M-12,0c0,6.629,5.372,12,12,12c6.627,0,12-5.371,12-12
			c0-6.626-5.373-12-12-12C-6.628-12-12-6.626-12,0z"/>
	</g>
	<g id="R25" transform="matrix(-2.1573318,0,0,2.1573318,892.49812,734.23699)">
		<path id="path3187" inkscape:connector-curvature="0" fill="#900000" d="M-12,0c0,6.629,5.372,12,12,12c6.627,0,12-5.371,12-12
			c0-6.626-5.373-12-12-12C-6.628-12-12-6.626-12,0z"/>
	</g>
	<g id="R26" transform="matrix(-2.1573318,0,0,2.1573318,822.54268,713.79821)">
		<path id="path3183" inkscape:connector-curvature="0" fill="#900000" d="M-12,0c0,6.629,5.372,12,12,12c6.627,0,12-5.371,12-12
			c0-6.626-5.373-12-12-12C-6.628-12-12-6.626-12,0z"/>
	</g>
	<g id="R27" transform="matrix(-2.1573318,0,0,2.1573318,804.37191,645.36938)">
		<path id="path3179" inkscape:connector-curvature="0" fill="#900000" d="M-12,0c0,6.629,5.372,12,12,12c6.627,0,12-5.371,12-12
			c0-6.626-5.373-12-12-12C-6.628-12-12-6.626-12,0z"/>
	</g>
	<g id="R28" transform="matrix(-2.1573318,0,0,2.1573318,873.56669,662.65112)">
		<path id="path3175" inkscape:connector-curvature="0" fill="#900000" d="M-12,0c0,6.629,5.372,12,12,12c6.627,0,12-5.371,12-12
			c0-6.626-5.373-12-12-12C-6.628-12-12-6.626-12,0z"/>
	</g>
	<g id="R29" transform="matrix(-2.1573318,0,0,2.1573318,941.3096,677.72719)">
		<path id="path3171" inkscape:connector-curvature="0" fill="#900000" d="M-12,0c0,6.629,5.372,12,12,12c6.627,0,12-5.371,12-12
			c0-6.626-5.373-12-12-12C-6.628-12-12-6.626-12,0z"/>
	</g>
	<g id="R30" transform="matrix(-2.1573318,0,0,2.1573318,1011.1745,689.86628)">
		<path id="path3167" inkscape:connector-curvature="0" fill="#900000" d="M-12,0c0,6.629,5.372,12,12,12c6.627,0,12-5.371,12-12
			c0-6.626-5.373-12-12-12C-6.628-12-12-6.626-12,0z"/>
	</g>
	<g id="R31" transform="matrix(-2.1573318,0,0,2.1573318,782.33282,577.07105)">
		<path id="path3163" inkscape:connector-curvature="0" fill="#900000" d="M-12,0c0,6.629,5.372,12,12,12c6.627,0,12-5.371,12-12
			c0-6.626-5.373-12-12-12C-6.628-12-12-6.626-12,0z"/>
	</g>
	<g id="R32" transform="matrix(-2.1573318,0,0,2.1573318,849.13645,592.2524)">
		<path id="path3159" inkscape:connector-curvature="0" fill="#900000" d="M-12,0c0,6.629,5.372,12,12,12c6.627,0,12-5.371,12-12
			c0-6.626-5.373-12-12-12C-6.628-12-12-6.626-12,0z"/>
	</g>
	<g id="R33" transform="matrix(-2.1573318,0,0,2.1573318,916.25394,604.15765)">
		<path id="path3155" inkscape:connector-curvature="0" fill="#900000" d="M-12,0c0,6.629,5.372,12,12,12c6.627,0,12-5.371,12-12
			c0-6.626-5.373-12-12-12C-6.628-12-12-6.626-12,0z"/>
	</g>
	<g id="R34" transform="matrix(-2.1573318,0,0,2.1573318,981.92176,614.6673)">
		<path id="path3151" inkscape:connector-curvature="0" fill="#900000" d="M-12,0c0,6.629,5.372,12,12,12c6.627,0,12-5.371,12-12
			c0-6.626-5.373-12-12-12C-6.628-12-12-6.626-12,0z"/>
	</g>
	<g id="R35" transform="matrix(-2.1573318,0,0,2.1573318,1050.0823,623.01122)">
		<path id="path3147" inkscape:connector-curvature="0" fill="#900000" d="M-12,0c0,6.629,5.372,12,12,12c6.627,0,12-5.371,12-12
			c0-6.626-5.373-12-12-12C-6.628-12-12-6.626-12,0z"/>
	</g>
	<g id="R36" transform="matrix(-2.1573318,0,0,2.1573318,819.17402,522.44029)">
		<path id="path3143" inkscape:connector-curvature="0" fill="#900000" d="M-12,0c0,6.629,5.372,12,12,12c6.627,0,12-5.371,12-12
			c0-6.626-5.373-12-12-12C-6.628-12-12-6.626-12,0z"/>
	</g>
	<g id="R37" transform="matrix(-2.1573318,0,0,2.1573318,884.3974,531.93126)">
		<path id="path3139" inkscape:connector-curvature="0" fill="#900000" d="M-12,0c0,6.629,5.372,12,12,12c6.627,0,12-5.371,12-12
			c0-6.626-5.373-12-12-12C-6.628-12-12-6.626-12,0z"/>
	</g>
	<g id="R38" transform="matrix(-2.1573318,0,0,2.1573318,949.63353,539.29229)">
		<path id="path3135" inkscape:connector-curvature="0" fill="#900000" d="M-12,0c0,6.629,5.372,12,12,12c6.627,0,12-5.371,12-12
			c0-6.626-5.373-12-12-12C-6.629-12-12-6.626-12,0z"/>
	</g>
	<g id="R39" transform="matrix(-2.1573318,0,0,2.1573318,1013.5002,545.89287)">
		<path id="path3131" inkscape:connector-curvature="0" fill="#900000" d="M-12,0c0,6.629,5.372,12,12,12c6.627,0,12-5.371,12-12
			c0-6.626-5.373-12-12-12C-6.628-12-12-6.626-12,0z"/>
	</g>
	<g id="R40" transform="matrix(-2.1573318,0,0,2.1573318,1080.1879,550.98611)">
		<path id="path3127" inkscape:connector-curvature="0" fill="#900000" d="M-12.001,0c0,6.629,5.372,12,12,12
			c6.627,0,12-5.371,12-12c0-6.626-5.373-12-12-12C-6.628-12-12.001-6.626-12.001,0z"/>
	</g>
	<g id="R41" transform="matrix(-2.1573318,0,0,2.1573318,845.16508,461.03962)">
		<path id="path3123" inkscape:connector-curvature="0" fill="#900000" d="M-12,0c0,6.629,5.372,12,12,12c6.627,0,12-5.371,12-12
			c0-6.626-5.373-12-12-12C-6.628-12-12-6.626-12,0z"/>
	</g>
	<g id="R42" transform="matrix(-2.1573318,0,0,2.1573318,909.0045,465.55448)">
		<path id="path3119" inkscape:connector-curvature="0" fill="#900000" d="M-12,0c0,6.629,5.372,12,12,12c6.627,0,12-5.371,12-12
			c0-6.626-5.373-12-12-12C-6.629-12-12-6.626-12,0z"/>
	</g>
	<g id="R43" transform="matrix(-2.1573318,0,0,2.1573318,972.73425,469.02734)">
		<path id="path3115" inkscape:connector-curvature="0" fill="#900000" d="M-12,0c0,6.629,5.372,12,12,12c6.627,0,12-5.371,12-12
			c0-6.626-5.373-12-12-12C-6.628-12-12-6.626-12,0z"/>
	</g>
	<g id="R44" transform="matrix(-2.1573318,0,0,2.1573318,1035.2105,472.24242)">
		<path id="path3111" inkscape:connector-curvature="0" fill="#900000" d="M-12.001,0c0,6.629,5.372,12,12,12
			c6.627,0,12-5.371,12-12c0-6.626-5.373-12-12-12C-6.628-12-12.001-6.626-12.001,0z"/>
	</g>
	<g id="R45" transform="matrix(-2.1573318,0,0,2.1573318,1100.7627,474.5197)">
		<path id="path3107" inkscape:connector-curvature="0" fill="#900000" d="M-12,0c0,6.629,5.372,12,12,12c6.627,0,12-5.371,12-12
			c0-6.626-5.373-12-12-12C-6.628-12-12-6.626-12,0z"/>
	</g>
	<g id="R46" transform="matrix(-2.1573318,0,0,2.1573318,858.956,394.22337)">
		<path id="path3103" inkscape:connector-curvature="0" fill="#900000" d="M-12,0c0,6.629,5.372,12,12,12c6.627,0,12-5.371,12-12
			c0-6.626-5.373-12-12-12C-6.628-12-12-6.626-12,0z"/>
	</g>
	<g id="R47" transform="matrix(-2.1573318,0,0,2.1573318,921.8052,394.27407)">
		<path id="path3099" inkscape:connector-curvature="0" fill="#900000" d="M-12.001,0c0,6.629,5.372,12,12,12
			c6.627,0,12-5.371,12-12c0-6.626-5.373-12-12-12C-6.629-12-12.001-6.626-12.001,0z"/>
	</g>
	<g id="R48" transform="matrix(-2.1573318,0,0,2.1573318,984.57867,394.33729)">
		<path id="path3095" inkscape:connector-curvature="0" fill="#900000" d="M-12,0c0,6.629,5.372,12,12,12c6.627,0,12-5.371,12-12
			c0-6.626-5.373-12-12-12C-6.629-12-12-6.626-12,0z"/>
	</g>
	<g id="R49" transform="matrix(-2.1573318,0,0,2.1573318,1046.2227,394.55)">
		<path id="path3091" inkscape:connector-curvature="0" fill="#900000" d="M-12,0c0,6.629,5.372,12,12,12c6.627,0,12-5.371,12-12
			c0-6.626-5.373-12-12-12C-6.628-12-12-6.626-12,0z"/>
	</g>
	<g id="R50" transform="matrix(-2.1573318,0,0,2.1573318,1111.0818,394.33729)">
		<path id="path3087" inkscape:connector-curvature="0" fill="#900000" d="M-12,0c0,6.629,5.372,12,12,12c6.627,0,12-5.371,12-12
			c0-6.626-5.373-12-12-12C-6.629-12-12-6.626-12,0z"/>
	</g>
	<path id="text3373" inkscape:connector-curvature="0" d="M285.791,420.75v13.235l1.121,1.044l11.364-7.511v-6.769
		c-1.01-0.517-2.025-0.898-3.046-1.145c-1.02-0.247-2.075-0.371-3.167-0.371c-0.989,0-2,0.124-3.03,0.371
		C288.003,419.852,286.923,420.233,285.791,420.75L285.791,420.75L285.791,420.75z M274.882,430.685v-15.256h-1.788
		c-0.93,0-1.662,0.174-2.197,0.522s-0.924,0.893-1.166,1.633c-0.082,0.202-0.162,0.483-0.243,0.842
		c-0.161,0.628-0.394,0.943-0.696,0.943c-0.283,0-0.485-0.236-0.606-0.708c-0.121-0.471-0.182-1.414-0.182-2.829
		c0-1.639,0.465-2.829,1.394-3.57c0.93-0.741,2.444-1.111,4.546-1.111h0.939v-8.756c0-2.268-0.425-3.997-1.272-5.187
		c-0.849-1.19-2.081-1.785-3.697-1.785c-1.354,0-2.576,0.478-3.667,1.432s-2,2.341-2.728,4.159l-1.121-0.337
		c0.869-3.413,2.156-6.012,3.863-7.796c1.707-1.785,3.753-2.677,6.137-2.678c2.323,0,4.228,0.865,5.713,2.593
		c1.484,1.729,2.227,3.94,2.227,6.635v31.591c0.586,0.18,1.207,0.432,1.864,0.758c0.656,0.325,1.379,0.735,2.167,1.229v-42.806
		h1.424v14.482c0.99,0.494,2,0.87,3.03,1.128s2.111,0.387,3.242,0.387c1.071,0,2.122-0.129,3.152-0.387s2.051-0.634,3.061-1.128
		v-7.611l-2.97-2.526l-3,1.852l-0.667-1.044l7.818-5.153l5.697,4.682l3.485-1.954l0.545,1.111l-5.454,3.334v34.554l2.424,2.829
		l2.97-2.088l0.637,0.977l-7.395,5.59c-1.515-1.19-2.576-2.29-3.182-3.3c-0.606-1.011-0.909-2.515-0.909-4.513v-2.458
		l-15.516,10.272c-1.839-1.302-3.591-2.251-5.258-2.846c-1.667-0.595-3.369-0.893-5.106-0.893c-2.687,0-4.984,0.898-6.894,2.694
		s-2.864,3.952-2.864,6.466c0,2.335,0.798,4.232,2.395,5.691c1.596,1.459,3.677,2.189,6.242,2.189c0.788,0,1.465-0.034,2.03-0.101
		c0.566-0.067,1.091-0.168,1.576-0.303v1.313c-0.687,0.135-1.328,0.236-1.925,0.303c-0.596,0.067-1.156,0.101-1.682,0.101
		c-2.949,0-5.344-0.887-7.182-2.661c-1.839-1.774-2.758-4.064-2.758-6.871c0-3.458,1.217-6.421,3.651-8.891
		S270.72,431.381,274.882,430.685L274.882,430.685L274.882,430.685z M285.791,405.999v13.438c0.99-0.494,2.01-0.859,3.061-1.095
		s2.121-0.354,3.212-0.354c1.213,0,2.318,0.118,3.318,0.354s1.965,0.601,2.895,1.095v-13.438c-1.071,0.517-2.127,0.898-3.167,1.145
		c-1.04,0.247-2.116,0.371-3.228,0.371c-1.131,0-2.196-0.129-3.196-0.387C287.684,406.869,286.721,406.493,285.791,405.999
		L285.791,405.999L285.791,405.999z M315.974,417.988l-2.121-1.92l-2.485,1.516l-0.605-0.774l6.394-5.018
		c1.172,0.943,2.066,1.875,2.683,2.795c0.616,0.921,0.924,1.751,0.924,2.492v3.031l10.121-8.318l5.697,4.479l3.788-2.425
		l0.485,0.909l-5.455,3.705v14.549l2.242,2.223l2.03-1.381l0.637,0.909l-5.849,4.479c-0.707-0.539-1.404-1.123-2.091-1.751
		c-0.687-0.629-1.374-1.313-2.061-2.055c0.142-0.471,0.237-0.982,0.288-1.532s0.076-1.263,0.076-2.139V418.19l-2.909-2.223
		l-7.001,5.658v11.383l2.213,1.684l2.121-1.381l0.575,0.943l-6.787,4.984l-4.455-3.536l-2.121,1.381l-0.546-0.943l4.213-3.132
		L315.974,417.988L315.974,417.988z M343.368,402.665l6-4.682l3.425,2.896l1.606-0.977l0.878,0.977l-6.03,4.681l-3.515-2.963
		l-1.758,1.044L343.368,402.665z M352.247,415.227l2.213-1.448l0.879,0.842l-5.031,3.57v14.953l2,1.954l2.092-1.313l0.879,0.741
		l-6.516,4.715c-1.333-1.01-2.192-1.818-2.576-2.425c-0.384-0.606-0.575-1.347-0.575-2.223V418.19l-1.879-1.785l-2.546,1.718
		l-0.545-0.977l7.575-5.354L352.247,415.227L352.247,415.227z M359.823,435.703l-2.061,1.381l-0.605-0.943l4.272-3.132v-17.782
		h-3.485l-1.242,1.785l-0.849-0.269l2.03-4.951h3.546v-9.599l4.606-3.873v13.472h3.394l1.242-1.819l0.879,0.202l-2,5.052h-3.515
		v17.782l2.212,1.684l2.061-1.381l0.606,0.943l-6.697,4.984L359.823,435.703L359.823,435.703z M380.915,427.082l8.697-5.153
		c-0.748-1.1-1.541-2.217-2.379-3.351c-0.839-1.134-1.742-2.296-2.712-3.486c-0.646,0.314-1.269,0.589-1.864,0.825
		s-1.177,0.443-1.742,0.623V427.082z M374.642,434.962l-2.364,1.448l-0.667-0.842l4.576-3.233v-14.819
		c-0.505-0.045-0.924-0.084-1.258-0.118c-0.333-0.034-0.591-0.073-0.772-0.118l0.303-1.381c0.121,0,0.313,0.012,0.576,0.034
		s0.465,0.033,0.606,0.033c1.717,0,3.575-0.348,5.575-1.044c2-0.696,4.152-1.74,6.455-3.132c1.03,1.325,2.091,2.733,3.182,4.227
		s2.202,3.07,3.334,4.732l-13.273,7.982v3.604l5.455,3.166l6.333-3.806l0.697,1.111l-10.818,6.433L374.642,434.962L374.642,434.962z
		 M403.703,417.079v15.594l6.334,2.425c0.687-0.314,1.374-0.584,2.061-0.809s1.384-0.415,2.091-0.572v-15.593l-4.333-4.412
		c-0.809,0.764-1.718,1.426-2.728,1.987C406.117,416.259,404.976,416.72,403.703,417.079L403.703,417.079z M400.219,397.579
		l18.758,19.163l2.909-2.055l0.758,0.741l-3.667,3.166v14.92c0.242,0,0.49,0.017,0.742,0.05c0.253,0.034,0.602,0.107,1.046,0.219
		l0.061,1.38c-0.403-0.112-0.838-0.196-1.303-0.252s-1-0.084-1.606-0.084c-2.04,0-4.096,0.365-6.166,1.094
		c-2.071,0.73-4.157,1.835-6.258,3.317l-7.304-4.075l-2.788,1.448l-0.575-0.977l4.151-2.762v-15.357
		c-0.505-0.045-0.924-0.084-1.258-0.118c-0.333-0.034-0.591-0.073-0.772-0.118l0.303-1.347c0.546,0.067,1.041,0.118,1.485,0.152
		c0.444,0.033,0.838,0.05,1.182,0.05c1.717,0,3.344-0.292,4.879-0.875c1.535-0.584,2.889-1.426,4.061-2.526l-11.546-11.922
		L400.219,397.579L400.219,397.579z M457.463,428.53c2.282,0.718,4.379,1.633,6.288,2.745s3.621,2.431,5.136,3.958
		c3.616-1.819,6.258-3.626,7.925-5.422c1.667-1.796,2.5-3.716,2.5-5.759c0-2.402-0.904-4.44-2.712-6.113
		c-1.809-1.672-4.541-3.014-8.197-4.024l-2.818,3.738c3.839,1.1,6.495,2.217,7.97,3.351s2.212,2.543,2.212,4.227
		c0,1.145-0.348,2.184-1.045,3.115s-1.712,1.712-3.046,2.341l-0.545-0.64c0.505-0.359,0.898-0.78,1.182-1.263
		c0.282-0.483,0.424-0.982,0.424-1.499c0-1.392-2.354-2.919-7.061-4.581c-1.272-0.449-2.272-0.808-3-1.078L457.463,428.53
		L457.463,428.53z M463.796,439.239c-1.333-1.347-2.742-2.571-4.228-3.671c-1.484-1.1-3.056-2.088-4.712-2.963
		c-3.818,4.715-7.591,8.352-11.318,10.912s-7.066,3.839-10.016,3.839c-1.677,0-3.03-0.528-4.061-1.583s-1.546-2.436-1.546-4.143
		c0-1.661,0.516-3.312,1.546-4.951s2.565-3.244,4.606-4.816c2-1.572,4.318-2.773,6.954-3.604c2.637-0.831,5.45-1.246,8.439-1.246
		c0.97,0,2.025,0.09,3.167,0.27s2.379,0.438,3.713,0.774l5.151-6.837c-8.606-2.852-13.976-5.063-16.106-6.635
		c-2.132-1.571-3.197-3.525-3.197-5.86c0-0.92,0.137-1.892,0.409-2.913c0.272-1.022,0.661-2.004,1.167-2.947l1.03,0.033
		c-0.041,0.225-0.082,0.494-0.121,0.809c-0.041,0.314-0.062,0.595-0.062,0.842c0,2.357,1.485,4.496,4.455,6.416
		c2.97,1.919,8.081,3.979,15.333,6.18l2.818-3.637c-7.838-2.357-13.046-4.462-15.621-6.314c-2.576-1.853-3.864-4.16-3.864-6.921
		c0-2.918,1.151-5.327,3.455-7.224c2.303-1.897,5.263-2.846,8.879-2.846c2.525,0,4.909,0.483,7.151,1.448
		c2.243,0.965,4.374,2.436,6.395,4.412l6.061-3.671l0.516,1.246l-11.425,7.173c-1.939-3.054-3.813-5.265-5.621-6.635
		c-1.809-1.37-3.743-2.054-5.804-2.054c-1.979,0-3.642,0.55-4.985,1.65c-1.343,1.101-2.015,2.437-2.015,4.008
		c0,2.201,1.374,4.131,4.121,5.793c2.748,1.662,8.011,3.592,15.788,5.793c2.364-2.447,4.586-4.44,6.667-5.978
		c2.081-1.538,4.121-2.7,6.122-3.486l0.484,1.179c-1.979,0.808-3.979,1.953-6,3.435s-3.99,3.256-5.909,5.321
		c3.495,1.167,6.167,2.734,8.015,4.698c1.849,1.964,2.773,4.215,2.773,6.752c0,3.278-1.449,6.326-4.349,9.144
		S470.402,436.186,463.796,439.239L463.796,439.239L463.796,439.239z M453.856,431.931c-1.516-0.651-2.99-1.14-4.425-1.465
		c-1.434-0.326-2.828-0.488-4.182-0.488c-1.899,0-3.758,0.28-5.576,0.842s-3.525,1.392-5.121,2.492
		c-1.556,1.055-2.803,2.357-3.742,3.907s-1.409,3.065-1.409,4.546c0,1.37,0.379,2.425,1.136,3.166
		c0.758,0.741,1.834,1.111,3.228,1.111c2.667,0,5.783-1.246,9.349-3.738C446.68,439.812,450.261,436.354,453.856,431.931
		L453.856,431.931z M488.797,435.703l-2.061,1.381l-0.606-0.943l4.272-3.132v-17.782h-3.484l-1.242,1.785l-0.849-0.269l2.03-4.951
		h3.545v-9.599l4.606-3.873v13.472h3.395l1.242-1.819l0.879,0.202l-2,5.052h-3.516v17.782l2.213,1.684l2.061-1.381l0.605,0.943
		l-6.697,4.984L488.797,435.703L488.797,435.703z M517.889,430.887v-12.629l-2.97-1.853c-1.111,0.584-2.223,1.016-3.334,1.297
		c-1.111,0.281-2.252,0.421-3.424,0.421h-0.818l7.091,7.106l-0.758,0.91l-2.605-2.425c-1.616,0.876-2.818,1.813-3.606,2.813
		s-1.182,2.083-1.182,3.25c0,1.212,0.389,2.284,1.167,3.216c0.777,0.932,1.944,1.746,3.5,2.442L517.889,430.887L517.889,430.887z
		 M517.889,432.403l-10.364,6.836c-1.979-0.763-3.465-1.734-4.454-2.913c-0.99-1.179-1.485-2.576-1.485-4.193
		c0-1.954,0.677-3.66,2.03-5.119s3.565-2.863,6.637-4.21l-5.121-5.153c-0.081-0.067-0.182-0.168-0.304-0.303
		c-0.849-0.808-1.272-1.628-1.272-2.458c0-0.875,0.288-1.611,0.863-2.206c0.576-0.595,1.288-0.892,2.137-0.892
		c0.869,0,1.581,0.275,2.137,0.825c0.556,0.55,0.833,1.263,0.833,2.138c0,0.449-0.096,0.859-0.288,1.229
		c-0.191,0.371-0.47,0.69-0.833,0.959c1.637-0.022,3.293-0.443,4.97-1.263c1.677-0.819,3.516-2.116,5.516-3.89l5.091,3.772
		l2.849-1.65l0.516,0.842l-4.728,3.031v15.223l2.242,2.223l2.03-1.381l0.637,0.909l-5.97,4.479
		c-1.071-0.696-1.909-1.605-2.516-2.728C518.433,435.389,518.05,434.019,517.889,432.403L517.889,432.403z M531.949,435.703
		l-2.061,1.381l-0.606-0.943l4.273-3.132v-17.782h-3.485l-1.242,1.785l-0.849-0.269l2.03-4.951h3.546v-9.599l4.606-3.873v13.472
		h3.394l1.242-1.819l0.879,0.202l-2,5.052h-3.515v17.782l2.212,1.684l2.061-1.381l0.606,0.943l-6.697,4.984L531.949,435.703z
		 M553.041,427.082l8.697-5.153c-0.748-1.1-1.541-2.217-2.379-3.351c-0.839-1.134-1.742-2.296-2.712-3.486
		c-0.646,0.314-1.268,0.589-1.864,0.825c-0.596,0.236-1.177,0.443-1.742,0.623V427.082L553.041,427.082z M546.767,434.962
		l-2.363,1.448l-0.667-0.842l4.576-3.233v-14.819c-0.505-0.045-0.924-0.084-1.258-0.118c-0.333-0.034-0.591-0.073-0.772-0.118
		l0.303-1.381c0.121,0,0.313,0.012,0.576,0.034s0.465,0.033,0.606,0.033c1.717,0,3.575-0.348,5.575-1.044
		c2-0.696,4.152-1.74,6.455-3.132c1.03,1.325,2.091,2.733,3.182,4.227s2.202,3.07,3.334,4.732l-13.273,7.982v3.604l5.455,3.166
		l6.333-3.806l0.697,1.111l-10.818,6.433L546.767,434.962L546.767,434.962z M569.859,435.636c1.414-0.741,2.732-1.302,3.955-1.684
		c1.222-0.381,2.328-0.572,3.318-0.572c0.768,0,1.54,0.168,2.318,0.505c0.777,0.337,1.54,0.831,2.287,1.482
		c0.485-0.247,1.162-0.505,2.03-0.774c0.101-0.022,0.162-0.045,0.183-0.067l0.394-8.824h-5.485L569.859,435.636L569.859,435.636z
		 M574.345,424.252h4.849l7.424-8.285c-0.929,0.562-1.787,0.982-2.575,1.263s-1.516,0.421-2.183,0.421
		c-0.727,0-1.494-0.168-2.303-0.505c-0.808-0.336-1.717-0.864-2.728-1.583c-0.303,0.112-0.702,0.247-1.196,0.404
		c-0.495,0.157-0.804,0.258-0.925,0.303L574.345,424.252L574.345,424.252z M566.647,439.239l-1-0.977l11.061-12.192h-9.818v-1.313
		h2.667l0.363-8.15c-0.344-0.045-0.656-0.112-0.939-0.202c-0.282-0.09-0.535-0.202-0.758-0.337l0.546-1.111
		c0.485,0.112,0.975,0.197,1.47,0.252c0.495,0.057,0.995,0.084,1.5,0.084c1.616,0,3.177-0.303,4.682-0.909
		c1.506-0.606,2.844-1.471,4.016-2.593c1.272,0.965,2.358,1.662,3.258,2.088c0.899,0.427,1.712,0.64,2.439,0.64
		c0.606,0,1.191-0.146,1.758-0.438c0.565-0.292,1.142-0.741,1.727-1.347l0.849-0.943l1,0.875l-10.182,11.316h10.061v1.246h-2.242
		l-0.363,8.824c0.02,0,0.061,0.011,0.121,0.033c0.505,0.09,0.939,0.202,1.303,0.337v1.145c-0.667-0.112-1.161-0.185-1.484-0.219
		s-0.637-0.05-0.939-0.05c-1.718,0-3.39,0.325-5.016,0.977c-1.626,0.651-3.197,1.639-4.712,2.964
		c-1.213-0.966-2.339-1.679-3.379-2.139c-1.041-0.46-2.025-0.69-2.955-0.69c-0.747,0-1.47,0.151-2.167,0.455
		c-0.696,0.303-1.317,0.747-1.863,1.331L566.647,439.239L566.647,439.239z M626.315,428.53c2.283,0.718,4.379,1.633,6.288,2.745
		s3.621,2.431,5.137,3.958c3.616-1.819,6.258-3.626,7.925-5.422c1.666-1.796,2.5-3.716,2.5-5.759c0-2.402-0.904-4.44-2.712-6.113
		c-1.809-1.672-4.541-3.014-8.197-4.024l-2.818,3.738c3.838,1.1,6.495,2.217,7.97,3.351s2.212,2.543,2.212,4.227
		c0,1.145-0.349,2.184-1.045,3.115c-0.697,0.932-1.713,1.712-3.046,2.341l-0.546-0.64c0.506-0.359,0.899-0.78,1.183-1.263
		c0.282-0.483,0.424-0.982,0.424-1.499c0-1.392-2.354-2.919-7.061-4.581c-1.273-0.449-2.273-0.808-3-1.078L626.315,428.53
		L626.315,428.53z M632.649,439.239c-1.334-1.347-2.743-2.571-4.228-3.671c-1.485-1.1-3.056-2.088-4.712-2.963
		c-3.818,4.715-7.592,8.352-11.319,10.912c-3.727,2.56-7.065,3.839-10.015,3.839c-1.677,0-3.03-0.528-4.061-1.583
		c-1.031-1.055-1.546-2.436-1.546-4.143c0-1.661,0.515-3.312,1.546-4.951c1.03-1.639,2.565-3.244,4.605-4.816
		c2-1.572,4.318-2.773,6.955-3.604c2.637-0.831,5.449-1.246,8.439-1.246c0.97,0,2.025,0.09,3.167,0.27s2.379,0.438,3.712,0.774
		l5.151-6.837c-8.605-2.852-13.975-5.063-16.106-6.635c-2.131-1.571-3.196-3.525-3.196-5.86c0-0.92,0.136-1.892,0.409-2.913
		c0.272-1.022,0.661-2.004,1.166-2.947l1.03,0.033c-0.04,0.225-0.08,0.494-0.121,0.809s-0.061,0.595-0.061,0.842
		c0,2.357,1.484,4.496,4.454,6.416c2.97,1.919,8.081,3.979,15.334,6.18l2.818-3.637c-7.839-2.357-13.046-4.462-15.622-6.314
		c-2.575-1.853-3.863-4.16-3.863-6.921c0-2.918,1.151-5.327,3.455-7.224c2.303-1.897,5.262-2.846,8.879-2.846
		c2.525,0,4.909,0.483,7.151,1.448s4.374,2.436,6.395,4.412l6.061-3.671l0.515,1.246l-11.424,7.173
		c-1.939-3.054-3.813-5.265-5.622-6.635c-1.808-1.37-3.742-2.054-5.803-2.054c-1.979,0-3.642,0.55-4.985,1.65
		c-1.343,1.101-2.015,2.437-2.015,4.008c0,2.201,1.373,4.131,4.121,5.793c2.747,1.662,8.011,3.592,15.788,5.793
		c2.363-2.447,4.586-4.44,6.667-5.978c2.081-1.538,4.121-2.7,6.121-3.486l0.485,1.179c-1.98,0.808-3.98,1.953-6,3.435
		c-2.021,1.482-3.99,3.256-5.909,5.321c3.494,1.167,6.166,2.734,8.015,4.698s2.773,4.215,2.773,6.752
		c0,3.278-1.45,6.326-4.349,9.144C644.008,433.25,639.255,436.186,632.649,439.239L632.649,439.239L632.649,439.239z
		 M622.709,431.931c-1.515-0.651-2.989-1.14-4.424-1.465c-1.435-0.326-2.828-0.488-4.182-0.488c-1.899,0-3.758,0.28-5.576,0.842
		s-3.525,1.392-5.121,2.492c-1.556,1.055-2.804,2.357-3.743,3.907s-1.409,3.065-1.409,4.546c0,1.37,0.379,2.425,1.137,3.166
		c0.758,0.741,1.833,1.111,3.228,1.111c2.667,0,5.783-1.246,9.349-3.738S619.113,436.354,622.709,431.931L622.709,431.931z
		 M663.104,427.082l8.697-5.153c-0.747-1.1-1.54-2.217-2.379-3.351s-1.742-2.296-2.712-3.486c-0.646,0.314-1.268,0.589-1.864,0.825
		c-0.596,0.236-1.177,0.443-1.742,0.623V427.082z M656.832,434.962l-2.364,1.448l-0.667-0.842l4.576-3.233v-14.819
		c-0.505-0.045-0.924-0.084-1.258-0.118c-0.333-0.034-0.591-0.073-0.772-0.118l0.303-1.381c0.121,0,0.313,0.012,0.576,0.034
		s0.465,0.033,0.606,0.033c1.717,0,3.575-0.348,5.575-1.044c2-0.696,4.152-1.74,6.455-3.132c1.03,1.325,2.091,2.733,3.182,4.227
		s2.202,3.07,3.334,4.732l-13.273,7.982v3.604l5.455,3.166l6.333-3.806l0.697,1.111l-10.818,6.433L656.832,434.962L656.832,434.962z
		 M681.923,417.988l-2.121-1.92l-2.484,1.516l-0.606-0.774l6.395-5.018c1.172,0.943,2.065,1.875,2.682,2.795
		c0.616,0.921,0.924,1.751,0.924,2.492v3.031l10.122-8.318l5.697,4.479l3.788-2.425l0.484,0.909l-5.455,3.705v14.549l2.243,2.223
		l2.03-1.381l0.636,0.909l-5.849,4.479c-0.707-0.539-1.403-1.123-2.091-1.751c-0.687-0.629-1.374-1.313-2.061-2.055
		c0.142-0.471,0.237-0.982,0.288-1.532s0.075-1.263,0.075-2.139V418.19l-2.909-2.223l-7,5.658v11.383l2.212,1.684l2.121-1.381
		l0.576,0.943l-6.788,4.984l-4.455-3.536l-2.121,1.381l-0.545-0.943l4.212-3.132V417.988L681.923,417.988z M724.197,430.887v-12.63
		l-2.97-1.852c-1.111,0.584-2.223,1.016-3.334,1.296c-1.11,0.281-2.252,0.421-3.424,0.421h-0.818l7.091,7.106l-0.758,0.909
		l-2.605-2.425c-1.616,0.876-2.818,1.813-3.606,2.813s-1.182,2.083-1.182,3.25c0,1.212,0.389,2.284,1.167,3.216
		c0.777,0.932,1.944,1.746,3.5,2.441L724.197,430.887L724.197,430.887z M724.197,432.403l-10.364,6.836
		c-1.979-0.763-3.465-1.734-4.454-2.913c-0.99-1.179-1.485-2.577-1.485-4.193c0-1.954,0.677-3.66,2.03-5.119s3.566-2.863,6.637-4.21
		l-5.121-5.153c-0.081-0.067-0.182-0.168-0.304-0.303c-0.848-0.808-1.272-1.628-1.272-2.458c0-0.875,0.288-1.611,0.863-2.206
		c0.576-0.595,1.288-0.892,2.137-0.892c0.869,0,1.581,0.275,2.137,0.825c0.556,0.55,0.833,1.263,0.833,2.139
		c0,0.449-0.096,0.859-0.288,1.229c-0.191,0.371-0.469,0.69-0.833,0.959c1.637-0.022,3.293-0.443,4.97-1.263s3.516-2.116,5.516-3.89
		l5.091,3.772l2.849-1.65l0.516,0.842l-4.728,3.031v15.223l2.242,2.223l2.03-1.38l0.637,0.909l-5.97,4.479
		c-1.071-0.696-1.909-1.605-2.516-2.728C724.742,435.389,724.358,434.019,724.197,432.403L724.197,432.403z M738.258,435.703
		l-2.061,1.381l-0.605-0.943l4.272-3.132v-17.782h-3.485l-1.242,1.785l-0.849-0.269l2.03-4.951h3.546v-9.599l4.606-3.873v13.472
		h3.394l1.243-1.819l0.878,0.202l-2,5.052h-3.515v17.782l2.212,1.684l2.061-1.381l0.606,0.943l-6.697,4.984L738.258,435.703
		L738.258,435.703z M759.349,427.082l8.697-5.153c-0.748-1.1-1.541-2.217-2.379-3.351c-0.839-1.134-1.742-2.296-2.712-3.486
		c-0.646,0.314-1.268,0.589-1.864,0.825c-0.596,0.236-1.177,0.443-1.742,0.623V427.082z M753.077,434.962l-2.364,1.448l-0.667-0.842
		l4.576-3.233v-14.819c-0.505-0.045-0.924-0.084-1.258-0.118c-0.333-0.034-0.591-0.073-0.772-0.118l0.303-1.381
		c0.121,0,0.313,0.012,0.576,0.034c0.263,0.023,0.465,0.034,0.606,0.034c1.717,0,3.575-0.348,5.575-1.044
		c2-0.696,4.152-1.74,6.455-3.132c1.03,1.325,2.091,2.733,3.182,4.227s2.202,3.07,3.334,4.732l-13.273,7.982v3.604l5.455,3.166
		l6.333-3.806l0.697,1.111l-10.818,6.433L753.077,434.962L753.077,434.962z"/>
	<g id="L5-1" transform="matrix(1.9004029,0,0,1.9004029,553.49711,700.87144)">
		<path id="path3467-7" inkscape:connector-curvature="0" fill="none" stroke="#000090" stroke-width="3.2447" d="M-11.999,0
			c0,6.629,5.372,12,12,12c6.627,0,12-5.371,12-12c0-6.626-5.373-12-12-12C-6.627-12-11.999-6.626-11.999,0z"/>
	</g>
	<g id="L5-1-9" transform="matrix(1.9004029,0,0,1.9004029,553.26677,762.78678)">
		<path id="path3467-7-4" inkscape:connector-curvature="0" fill="none" stroke="#000090" stroke-width="3.2447" d="M-12,0
			c0,6.629,5.372,12,12,12c6.627,0,12-5.371,12-12c0-6.626-5.373-12-12-12C-6.628-12-12-6.626-12,0z"/>
	</g>
</g>
</svg>
